{
  "asset": {
    "generator": "Khronos glTF Blender I/O v1.8.19",
    "version": "2.0"
  },
  "scene": 0,
  "scenes": [
    {
      "name": "Scene",
      "nodes": [
        0
      ]
    }
  ],
  "nodes": [
    {
      "mesh": 0,
      "name": "sphere_gltf"
    }
  ],
  "materials": [
    {
      "doubleSided": true,
      "name": "metal_grate_rusty",
      "normalTexture": {
        "index": 0
      },
      "pbrMetallicRoughness": {
        "baseColorTexture": {
          "index": 1
        },
        "metallicRoughnessTexture": {
          "index": 2
        }
      }
    }
  ],
  "meshes": [
    {
      "name": "Sphere.001",
      "primitives": [
        {
          "attributes": {
            "POSITION": 0,
            "NORMAL": 1,
            "TEXCOORD_0": 2
          },
          "indices": 3,
          "material": 0
        }
      ]
    }
  ],
  "textures": [
    {
      "sampler": 0,
      "source": 0
    },
    {
      "sampler": 0,
      "source": 1
    },
    {
      "sampler": 0,
      "source": 2
    }
  ],
  "images": [
    {
      "mimeType": "image/jpeg",
      "name": "metal_grate_rusty_nor_gl_8k",
      "uri": "textures/metal_grate_rusty_nor_gl_1k.jpg"
    },
    {
      "mimeType": "image/jpeg",
      "name": "metal_grate_rusty_diff_8k",
      "uri": "textures/metal_grate_rusty_diff_1k.jpg"
    },
    {
      "mimeType": "image/jpeg",
      "name": "metal_grate_rusty_arm_8k",
      "uri": "textures/metal_grate_rusty_arm_1k.jpg"
    }
  ],
  "accessors": [
    {
      "bufferView": 0,
      "componentType": 5126,
      "count": 53895,
      "max": [
        0.2511577010154724,
        0.2509625256061554,
        0.25072380900382996
      ],
      "min": [
        -0.2511557936668396,
        -0.25101351737976074,
        -0.25072115659713745
      ],
      "type": "VEC3"
    },
    {
      "bufferView": 1,
      "componentType": 5126,
      "count": 53895,
      "type": "VEC3"
    },
    {
      "bufferView": 2,
      "componentType": 5126,
      "count": 53895,
      "type": "VEC2"
    },
    {
      "bufferView": 3,
      "componentType": 5123,
      "count": 322170,
      "type": "SCALAR"
    }
  ],
  "bufferViews": [
    {
      "buffer": 0,
      "byteLength": 646740,
      "byteOffset": 0
    },
    {
      "buffer": 0,
      "byteLength": 646740,
      "byteOffset": 646740
    },
    {
      "buffer": 0,
      "byteLength": 431160,
      "byteOffset": 1293480
    },
    {
      "buffer": 0,
      "byteLength": 644340,
      "byteOffset": 1724640
    }
  ],
  "samplers": [
    {
      "magFilter": 9729,
      "minFilter": 9987
    }
  ],
  "buffers": [
    {
      "byteLength": 2368980,
      "uri": "metal_grate_rusty.bin"
    }
  ]
}